<?xml version="1.0" encoding="utf-8"?>
<!-- Generator: Adobe Illustrator 21.0.2, SVG Export Plug-In . SVG Version: 6.00 Build 0)  -->
<svg version="1.1" id="Layer_1" xmlns="http://www.w3.org/2000/svg" xmlns:xlink="http://www.w3.org/1999/xlink" x="0px" y="0px"
	 viewBox="0 0 331.7 53.8" style="enable-background:new 0 0 331.7 53.8;" xml:space="preserve">
<style type="text/css">
	.st0{fill:#FFFFFF;}
	.st1{fill:#F1F2F2;}
	.st2{fill:#847C30;}
	.st3{fill:#063135;}
	.st4{fill-rule:evenodd;clip-rule:evenodd;fill:#CFC44E;}
	.st5{fill:#006838;}
	.st6{fill:#779D3F;}
	.st7{fill:#534C20;}
	.st8{fill:#414042;}
	.st9{fill:#EC0044;}
	.st10{fill:#EDEDED;}
	.st11{fill:none;stroke:#FFFFFF;stroke-width:2;stroke-miterlimit:10;}
	.st12{fill:none;stroke:#FFFFFF;stroke-miterlimit:10;}
	.st13{fill:none;stroke:#FFFFFF;stroke-width:4;stroke-miterlimit:10;}
	.st14{opacity:0.9;fill:#534C20;}
	.st15{fill:none;stroke:#8A8A8D;stroke-width:2;stroke-miterlimit:10;}
	.st16{fill:#8A8A8D;}
</style>
<g>
	<path class="st9" d="M60.1,22L60.1,22L32.5,1.5l0,0c-0.3-0.2-0.7-0.4-1.2-0.4c-0.4,0-0.8,0.1-1.2,0.4l0,0L2.4,22l0,0
		c-0.5,0.4-0.8,0.9-0.8,1.6v1.6v25.5c0,1.1,0.9,2,2,2h11.9c1.1,0,2-0.9,2-2v-8.2c0-0.9,0.6-1.7,1.5-1.9l0,0c3.8-0.9,7.2-2,10.1-3.2
		c-1.5-0.8-2.8-1.7-4-2.7c-2.2,0.8-4.5,1.5-7,2l-0.1,0c-2.6,0.6-4.6,3-4.6,5.8l0,6.2H5.6V25.6c0-0.6,0.3-1.2,0.8-1.6l0,0L30.2,6.4
		l0,0C30.5,6.2,30.9,6,31.3,6c0.4,0,0.8,0.1,1.1,0.3l0,0L56.2,24l0,0c0.5,0.4,0.8,0.9,0.8,1.6v23.1h-7.9v-2v-0.4v-2.9l0-0.9
		c0-2.7-1.9-5-4.4-5.7c-4.3-1-8.1-2.2-11.3-3.8c-0.8-0.4-1.5-0.8-2.1-1.1c0,0,0,0,0,0c0,0,0,0,0,0c-0.1-0.1-0.2-0.2-0.4-0.2
		c0,0-0.1,0-0.1-0.1c-0.4-0.3-0.9-0.6-1.2-0.8c0,0,0,0-0.1,0c-0.1-0.1-0.2-0.1-0.3-0.2c0,0-0.1,0-0.1-0.1c-0.1-0.1-0.2-0.1-0.3-0.2
		c0,0-0.1,0-0.1-0.1c-0.1-0.1-0.2-0.1-0.2-0.2c0,0,0,0-0.1-0.1c-0.1-0.1-0.2-0.2-0.3-0.2c0,0,0,0,0,0c-0.1-0.1-0.2-0.2-0.3-0.3
		c0,0,0,0,0,0c-0.1-0.1-0.1-0.2-0.2-0.2c0,0,0,0-0.1-0.1c-0.1-0.1-0.1-0.1-0.2-0.2c0,0,0-0.1-0.1-0.1c0-0.1-0.1-0.1-0.1-0.2
		c0,0,0-0.1-0.1-0.1c0-0.1-0.1-0.1-0.1-0.2c0,0,0,0-0.1-0.1c0-0.1-0.1-0.1-0.1-0.2c0,0,0,0,0,0c0-0.1-0.1-0.1-0.1-0.2c0,0,0,0,0-0.1
		c0-0.1-0.1-0.1-0.1-0.2c0,0,0,0,0,0l0-0.1c-0.4-0.7-0.6-1.6-0.6-2.4c0-2.9,2.4-5.3,5.3-5.3s5.3,2.4,5.3,5.3c0,0.9-0.2,1.7-0.6,2.4
		l0,0.1c-0.5,0.9-1.4,1.9-2.8,3c0.4,0.2,0.7,0.4,1.1,0.6c0.9,0.4,1.8,0.9,2.8,1.2c0.8-0.8,1.5-1.5,2-2.3l0,0c0.9-1.4,1.4-3.1,1.4-5
		c0-5.1-4.2-9.3-9.3-9.3S22,19.9,22,25.1c0,1.8,0.5,3.5,1.4,4.9c0,0.1,0.1,0.1,0.1,0.2c0,0,0,0,0,0c0.2,0.3,0.4,0.6,0.6,0.8
		c0,0,0,0,0,0c0.1,0.1,0.1,0.2,0.2,0.2c0,0,0,0,0.1,0.1c0.1,0.1,0.1,0.1,0.2,0.2c0,0,0,0,0.1,0.1c0.1,0.1,0.2,0.2,0.2,0.2
		c0,0,0,0,0,0c0.1,0.1,0.2,0.2,0.3,0.3c0,0,0,0,0.1,0.1c0.1,0.1,0.1,0.1,0.2,0.2c0,0,0.1,0.1,0.1,0.1c0.1,0.1,0.1,0.1,0.2,0.2
		c0,0,0.1,0.1,0.1,0.1c0.1,0.1,0.1,0.1,0.2,0.2c0,0,0.1,0.1,0.1,0.1c0.1,0.1,0.2,0.1,0.3,0.2c0,0,0,0,0.1,0c0.1,0.1,0.2,0.2,0.3,0.3
		c0,0,0,0,0.1,0c2.3,1.7,5.2,3.3,8.7,4.6l0,0c2.4,0.9,5,1.7,7.9,2.3l0,0c0.9,0.2,1.5,1,1.5,1.9v8.2c0,1.1,0.9,2,2,2H59
		c1.1,0,2-0.9,2-2V25.2v-1.6C61,23,60.6,22.4,60.1,22"/>
	<path class="st16" d="M113.1,27.8c-1.1-0.5-2.5-0.8-4.2-0.8c-2.5,0-4.7,1.1-6.3,3l0-2.6h-3.9V50h4V37.4c0-4,2.3-6.6,5.7-6.6
		c1.3,0,2.7,0.3,3.7,0.9l0.3,0.2l1-3.9L113.1,27.8z"/>
	<path class="st16" d="M125.2,46.7c-4.4,0-7.6-3.3-7.6-8c0-4.6,3.2-7.9,7.6-7.9c4.4,0,7.6,3.3,7.6,7.9
		C132.8,43.3,129.6,46.7,125.2,46.7 M132.6,27.4v2.8c-1.9-2.2-4.6-3.3-7.8-3.3c-6.4,0-11.3,5-11.3,11.7c0,6.7,4.8,11.7,11.3,11.7
		c3.2,0,5.9-1.1,7.8-3.3V50h4V27.4H132.6z"/>
	<path class="st16" d="M169.1,45.6c-1.2,0.7-2.5,1.1-3.8,1.1c-2.7,0-4.1-1.7-4.1-4.7v-9.2h0v-1.6h4.9v-3.6h-4.9v-1.7h0v-2.7h-4v4.3
		v3.6V42c0,5.5,2.7,8.4,7.8,8.4c2.2,0,4.2-0.6,6-1.8L169.1,45.6z"/>
	<path class="st16" d="M150.4,20.9c1.1,0,2.1,0.3,3,0.6l1.4-3.4c-1.4-0.6-3-0.9-4.6-0.9c-4.9,0-7.6,3-7.6,8.4v1.9v3.6V50h4V31.2h5.5
		v-3.6h-5.5l0-2C146.6,22.4,147.8,20.9,150.4,20.9"/>
	<path class="st16" d="M91.6,44.2c-1.7,1.6-3.8,2.6-6,2.6c-4.4,0-7.6-3.4-7.6-8.1c0-4.7,3.2-8.1,7.6-8.1c2.2,0,4.2,0.9,6,2.5
		l0.2,0.2l2.6-2.7l-0.2-0.2c-2-2.3-5.1-3.6-8.5-3.6c-6.9,0-11.8,5-11.8,11.9c0,6.9,5,11.9,11.8,11.9c3.4,0,6.4-1.3,8.5-3.6l0.2-0.2
		l-2.5-2.8L91.6,44.2z"/>
	<path class="st16" d="M329.2,31v-2.7l-0.9,2.3h-1l-0.9-2.3V31h-0.9v-3.9h1.3l1,2.5l1-2.5h1.3V31H329.2z M322.6,31V28h-1.2v-0.8h3.4
		V28h-1.2V31H322.6z"/>
	<path class="st16" d="M219.9,46.7c-4.5,0-7.8-3.3-7.8-8c0-4.6,3.3-7.9,7.8-7.9c4.4,0,7.8,3.4,7.8,7.9
		C227.7,43.2,224.3,46.7,219.9,46.7 M219.9,27c-6.7,0-11.8,5-11.8,11.7c0,6.7,5.1,11.7,11.8,11.7c6.8,0,11.9-5,11.9-11.7
		C231.7,32,226.6,27,219.9,27"/>
	<path class="st16" d="M262.8,27c-1.8,0-6,0.4-8.3,4.4h0c-1.6-2.8-4.5-4.4-8.3-4.4c-1.8,0-5,0.4-7.2,3.1v-2.6h-3.9V50h4V37.3
		c0-3.5,2.7-6.4,6.2-6.5c4-0.1,6.4,2.2,6.4,6.4V50h4V37.3c0-3.5,2.7-6.4,6.2-6.5c4.1-0.1,6.4,2.2,6.4,6.4V50h4V36.1
		C272.2,30.6,268.4,27,262.8,27"/>
	<path class="st16" d="M286.7,30.7c3.5,0,6.1,2.5,6.6,6.3h-13.6C280.4,33.1,283,30.7,286.7,30.7 M286.8,27.1
		c-6.5,0-11.2,4.9-11.2,11.7c0,6.9,4.7,11.7,11.4,11.7c3.8,0,6.7-1.1,9.2-3.5l0.2-0.2l-2.2-2.8l-0.2,0.2c-1.9,1.8-4.3,2.7-6.8,2.7
		c-4.1,0-7-2.6-7.5-6.7h17.6l0-0.2c0-0.4,0.1-0.9,0.1-1.3v0C297.3,31.9,293,27.1,286.8,27.1"/>
	<path class="st16" d="M312.1,37l-2.6-0.3c-2.9-0.4-4.3-1.3-4.3-2.8c0-2,1.9-3.2,5-3.2c2.8,0,5.6,1,7.1,2l0.2,0.2l1.8-3.1l-0.2-0.1
		c-2.3-1.5-5.6-2.4-8.9-2.4c-5.5,0-9,2.7-9,6.9c0,2.5,1.3,5.6,7.5,6.3l2.6,0.3c3,0.4,4.4,1.3,4.4,3c0,2.1-2.1,3.3-5.8,3.3
		c-4,0-6.1-1.3-7.5-2.3l-0.2-0.2l-1.9,3l0.2,0.1c3.3,2.5,7.3,2.9,9.3,2.9c6,0,10-2.8,10-7.1C319.7,39.8,317.1,37.7,312.1,37"/>
	<path class="st16" d="M195.3,27.1c-1.7,0-4.9,0.4-7.1,3V16.9h-4l0,33.1h4V37.3c0-3.5,2.7-6.4,6.2-6.5c4-0.1,6.4,2.2,6.4,6.4V50h4
		V36.1C204.7,30.7,200.9,27.1,195.3,27.1"/>
</g>
</svg>
